<?xml version="1.0" encoding="UTF-8" standalone="no"?>
<!-- Uploaded to: SVG Repo, www.svgrepo.com, Generator: SVG Repo Mixer Tools -->

<svg
   width="800px"
   height="800px"
   viewBox="0 0 48 48"
   version="1.1"
   id="svg3"
   sodipodi:docname="awsl.svg"
   inkscape:version="1.3 (0e150ed6c4, 2023-07-21)"
   xmlns:inkscape="http://www.inkscape.org/namespaces/inkscape"
   xmlns:sodipodi="http://sodipodi.sourceforge.net/DTD/sodipodi-0.dtd"
   xmlns="http://www.w3.org/2000/svg"
   xmlns:svg="http://www.w3.org/2000/svg"
   xmlns:rdf="http://www.w3.org/1999/02/22-rdf-syntax-ns#"
   xmlns:cc="http://creativecommons.org/ns#"
   xmlns:dc="http://purl.org/dc/elements/1.1/">
  <defs
     id="defs3" />
  <sodipodi:namedview
     id="namedview3"
     pagecolor="#ffffff"
     bordercolor="#000000"
     borderopacity="0.25"
     inkscape:showpageshadow="2"
     inkscape:pageopacity="0.0"
     inkscape:pagecheckerboard="0"
     inkscape:deskcolor="#d1d1d1"
     inkscape:zoom="0.5275"
     inkscape:cx="493.83886"
     inkscape:cy="260.66351"
     inkscape:window-width="1920"
     inkscape:window-height="1017"
     inkscape:window-x="1912"
     inkscape:window-y="-8"
     inkscape:window-maximized="1"
     inkscape:current-layer="svg3" />
  <title
     id="title1">aws</title>
  <g
     id="Layer_2"
     data-name="Layer 2"
     transform="matrix(1.1327014,0,0,1.1327014,-2.9573459,0.90995255)">
    <g
       id="invisible_box"
       data-name="invisible box">
      <rect
         width="48"
         height="48"
         fill="none"
         id="rect1"
         x="0"
         y="0" />
      <rect
         width="48"
         height="48"
         fill="none"
         id="rect2"
         x="0"
         y="0" />
    </g>
    <g
       id="icons_Q2"
       data-name="icons Q2">
      <g
         id="g3"
         style="display:inline">
        <path
           d="m 14.4,20.6 a 5.1,5.1 0 0 0 0.2,1.3 l 0.4,1 a 0.4,0.4 0 0 1 0.1,0.3 c 0,0.2 -0.1,0.3 -0.2,0.5 l -1,0.6 h -0.3 a 0.6,0.6 0 0 1 -0.5,-0.2 1.8,1.8 0 0 1 -0.5,-0.7 5.6,5.6 0 0 1 -0.5,-0.8 5.4,5.4 0 0 1 -4.3,2 4,4 0 0 1 -2.9,-1.1 3.8,3.8 0 0 1 -1.1,-2.8 3.9,3.9 0 0 1 1.4,-3 5.2,5.2 0 0 1 3.5,-1.1 h 1.6 L 12,16.9 V 16 A 3.5,3.5 0 0 0 11.3,13.7 3.8,3.8 0 0 0 8.9,13 L 7.3,13.2 5.7,13.7 5.2,13.9 H 5 C 4.8,13.9 4.7,13.7 4.7,13.4 V 12.7 A 0.7,0.7 0 0 1 4.8,12.2 L 5.2,11.9 A 7.5,7.5 0 0 1 7,11.3 9.1,9.1 0 0 1 9.3,11 a 5.5,5.5 0 0 1 3.9,1.2 4.9,4.9 0 0 1 1.2,3.6 z M 8.5,22.8 10,22.5 a 4.2,4.2 0 0 0 1.4,-0.9 3.1,3.1 0 0 0 0.5,-1 c 0,-0.3 0.1,-0.7 0.1,-1.2 V 18.8 L 10.7,18.5 H 9.3 a 3.4,3.4 0 0 0 -2.2,0.6 2.1,2.1 0 0 0 -0.7,1.7 2.1,2.1 0 0 0 0.5,1.5 2.1,2.1 0 0 0 1.6,0.5 z m 11.7,1.6 A 0.6,0.6 0 0 1 19.7,24.2 0.9,0.9 0 0 1 19.3,23.6 L 15.9,12.3 a 1.8,1.8 0 0 1 -0.1,-0.6 0.3,0.3 0 0 1 0.3,-0.3 h 2 a 1.6,1.6 0 0 1 0.3,0.6 l 2.5,9.7 2.3,-9.7 a 0.8,0.8 0 0 1 0.2,-0.6 h 2.4 l 0.3,0.6 2.3,9.8 2.5,-9.8 0.3,-0.6 h 1.9 c 0.3,0 0.4,0.1 0.4,0.3 V 12 c 0,0.1 -0.1,0.2 -0.1,0.3 l -3.6,11.4 a 0.6,0.6 0 0 1 -0.3,0.5 L 29,24.4 h -1.3 a 0.7,0.7 0 0 1 -0.8,-0.8 l -2.3,-9.4 -2.3,9.4 a 0.8,0.8 0 0 1 -0.2,0.6 l -0.6,0.2 z M 39,24.8 a 8.3,8.3 0 0 1 -2.2,-0.3 l -1.7,-0.6 a 1.1,1.1 0 0 1 -0.5,-0.4 c 0,-0.1 -0.1,-0.3 -0.1,-0.4 v -0.8 a 0.4,0.4 0 0 1 0.4,-0.4 h 0.2 l 0.4,0.2 1.6,0.5 1.8,0.2 a 4.1,4.1 0 0 0 2.1,-0.5 1.6,1.6 0 0 0 0.8,-1.4 1.5,1.5 0 0 0 -0.4,-1 3.5,3.5 0 0 0 -1.5,-0.8 l -2.1,-0.7 a 4.6,4.6 0 0 1 -2.4,-1.4 3.6,3.6 0 0 1 -0.7,-2.2 2.9,2.9 0 0 1 0.4,-1.6 2.9,2.9 0 0 1 1,-1.2 l 1.6,-0.8 1.8,-0.2 h 1.9 l 0.9,0.3 0.6,0.2 c 0.2,0.1 0.3,0.3 0.4,0.4 a 0.7,0.7 0 0 1 0.1,0.5 v 0.7 c 0,0.3 -0.1,0.4 -0.3,0.4 a 0.6,0.6 0 0 1 -0.5,-0.2 8.8,8.8 0 0 0 -2.9,-0.5 3.6,3.6 0 0 0 -1.9,0.4 1.4,1.4 0 0 0 -0.7,1.3 1.4,1.4 0 0 0 0.5,1 2.9,2.9 0 0 0 1.6,0.8 l 2,0.7 a 4,4 0 0 1 2.3,1.4 3.1,3.1 0 0 1 0.7,2 4.3,4.3 0 0 1 -0.4,1.7 3.5,3.5 0 0 1 -1.1,1.3 3,3 0 0 1 -1.6,0.8 4.9,4.9 0 0 1 -2.1,0.6 z"
           id="path2" />
      </g>
    </g>
  </g>
  <path
     style="fill:#000000;stroke:#000000;stroke-width:1.11458;stroke-dasharray:none;stroke-opacity:1"
     d="M 0.42006343,31.571532 47.703794,31.505311"
     id="path3" />
  <metadata
     id="metadata3">
    <rdf:RDF>
      <cc:Work
         rdf:about="">
        <dc:title>aws</dc:title>
      </cc:Work>
    </rdf:RDF>
  </metadata>
</svg>
